<svg width="2000" height="800" xmlns="http://www.w3.org/2000/svg"><defs><linearGradient id="a" gradientTransform="rotate(90)"><stop offset="5%" stop-color="#63a53c"/><stop offset="95%" stop-color="#8abb6c"/></linearGradient><linearGradient id="b" gradientTransform="rotate(90)"><stop offset="5%" stop-color="#ace30e"/><stop offset="95%" stop-color="#c0ea4a"/></linearGradient><linearGradient id="c" gradientTransform="rotate(90)"><stop offset="5%" stop-color="#eafde6"/><stop offset="95%" stop-color="#effdec"/></linearGradient></defs><path fill="#1b676b" d="M0 0h2000v1400H0z"/><path d="M0 350c95.567 23.635 191.135 47.27 308 45 116.865-2.27 255.028-30.446 367-57 111.972-26.554 197.752-51.485 306-30 108.248 21.485 238.963 89.388 346 99 107.037 9.612 190.394-39.066 315-73s290.459-53.124 357-48c66.541 5.124 33.77 34.562 41 64l-40 1050H0Z" fill="url(#a)"/><path d="M0 700c111.45 46.204 222.898 92.408 338 68s233.855-119.428 344-132c110.145-12.572 211.68 57.305 320 57 108.32-.305 223.426-70.793 329-61 105.574 9.793 201.616 99.867 329 117 127.384 17.133 286.11-38.676 348-59 61.89-20.324 26.945-5.162 32 10l-40 700H0Z" fill="url(#b)"/><path d="M0 1050c115.223-14.891 230.446-29.782 348-13s237.438 65.238 341 67c103.562 1.762 190.803-43.169 307-57 116.197-13.831 261.352 3.437 369-7 107.648-10.437 177.79-48.58 290-50 112.21-1.42 266.489 33.88 331 50 64.511 16.12 39.256 13.06 54 10l-40 350H0Z" fill="url(#c)"/></svg>