<svg fill="none" height="759" viewBox="0 0 1733 759" width="1733" xmlns="http://www.w3.org/2000/svg">
<path d="M95.3201 269.159C141.575 272.509 187.022 278.459 232.929 284.469L232.47 284.409C223.294 279.601 216.519 281.419 207 275.664C201.375 275.829 199.887 272.929 197.364 270.795C200.462 272.103 202.071 270.51 203.105 269.744C201.269 269.503 198.742 270.976 196.794 268.016C203.105 269.744 204.831 267.264 212.06 269.112C211.944 269.999 215.384 272.253 214.925 272.193C223.99 274.281 235.921 279.45 240.627 279.165C246.252 278.999 237.187 276.911 243.387 275.919L245.107 277.046C244.648 276.986 249.814 276.76 246.717 275.453C249.814 276.76 253.027 277.181 255.666 278.428L262.552 279.33L262.093 279.27L262.325 277.496L262.552 279.33L272.651 280.652L272.192 280.592C272.192 280.592 272.651 280.652 273.11 280.712L280.914 281.734C274.377 278.173 270.366 273.139 270.604 267.759C270.493 265.04 272.334 261.674 274.978 259.315C274.176 258.308 274.176 258.308 272.339 258.068C277.157 260.502 268.667 257.587 270.155 260.487C268.435 259.36 266.256 258.173 263.617 256.926C266.598 259.119 259.712 258.218 257.876 257.977C258.91 257.211 256.615 256.911 255.697 256.79C245.941 256.415 236.3 255.153 227.003 254.837C225.51 255.544 222.639 256.07 218.74 253.756C218.28 253.695 218.281 253.695 217.821 253.635C220.919 254.943 221.262 255.889 220.687 256.716C220.344 255.769 217.705 254.522 216.444 253.455C215.526 253.335 214.608 253.215 213.69 253.094C213.574 253.981 216.787 254.402 217.014 256.235L213.917 254.928C214.492 254.101 213.574 253.981 213.231 253.034C211.854 252.854 210.476 252.674 209.099 252.493C208.756 251.547 208.413 250.6 207.495 250.48C205.775 249.353 204.055 248.226 201.875 247.039C202.334 247.099 202.218 247.986 200.382 247.745L199.58 246.738C191.892 244.83 182.135 244.455 177.207 239.301C184.209 239.316 190.868 238.384 197.411 238.339C196.952 238.279 196.952 238.279 196.609 237.332L192.82 237.738C189.839 235.544 193.628 235.138 186.172 231.457C189.844 231.938 195.58 234.492 198.678 235.799C196.039 234.552 194.546 235.259 194.889 236.205L197.986 237.512L197.068 237.392C197.527 237.452 197.986 237.512 198.445 237.573C202.693 237.227 206.825 237.768 211.072 237.422L210.613 237.362C209.695 237.242 208.777 237.122 208.318 237.062L207.743 237.888L206.023 236.761C195.696 233.606 185.254 231.337 174.927 228.181C172.632 227.881 171.946 225.988 172.98 225.221C174.014 224.455 175.967 223.809 178.262 224.109C194.329 226.213 210.74 229.263 226.691 232.253L224.285 229.233C228.3 230.66 233.35 231.321 236.331 233.515L235.872 233.455C245.054 234.657 254.578 236.806 263.759 238.008C263.416 237.061 262.498 236.941 262.155 235.994C267.548 237.602 273.4 239.27 282.697 239.585C285.225 238.113 281.668 236.745 287.293 236.58C297.73 242.455 315.296 240.246 322.287 247.474C325.501 247.894 328.714 248.315 331.469 248.676C372.795 246.872 413.319 244.062 457.511 245.338C479.778 246.45 501.011 248.328 522.128 251.093C516.736 249.485 511.802 247.937 506.409 246.33C502.394 244.902 498.837 243.535 495.74 242.228C420.11 231.425 346.322 217.256 272.992 203.147C272.992 203.147 272.992 203.147 273.452 203.207L271.726 205.686L268.745 203.492C271.383 204.74 271.04 203.793 271.156 202.906C253.369 199.676 235.238 195.499 217.451 192.268C218.712 193.335 218.596 194.222 221.693 195.529L222.147 199.195C222.606 199.256 223.983 199.436 224.442 199.496L219.736 199.781C218.933 198.775 216.754 197.588 214.918 197.347L212.85 198.88L220.881 201.735L216.058 202.907L219.039 205.101C217.546 205.807 213.646 203.493 211.81 203.253C212.269 203.313 212.385 202.426 212.385 202.426L207.795 201.825C211.008 202.246 212.158 200.593 207.225 199.045C207.568 199.992 209.288 201.119 205.615 200.638C205.272 199.691 206.307 198.925 206.307 198.925L207.684 199.105C211.013 198.64 206.196 196.205 204.935 195.139C205.964 197.978 200.803 194.598 198.851 195.244C209.641 194.853 189.791 189.549 199.204 188.978C197.827 188.798 196.909 188.677 195.531 188.497C195.072 188.437 194.956 189.324 194.497 189.263C190.366 188.723 183.253 185.988 176.024 184.14C173.728 183.839 171.433 183.539 169.138 183.238L172.578 185.492C169.824 185.131 167.645 183.944 165.465 182.757C155.482 180.549 144.923 179.166 134.481 176.898C123.463 175.455 116.356 169.114 118.429 163.975C119.12 162.262 120.154 161.496 121.189 160.729C119.469 159.603 116.714 159.242 114.076 157.995C117.859 161.195 109.712 159.227 106.958 158.866C108.567 157.274 101.565 157.259 104.894 156.793C95.7183 151.984 86.305 152.556 80.4532 150.888C80.5692 150.001 77.8149 149.641 79.7672 148.994C73.1081 149.926 57.6211 143.39 53.1465 141.902C55.5579 141.316 51.0833 139.829 54.7559 140.31C54.7559 140.31 54.1807 141.136 55.5579 141.316C56.935 141.497 57.5103 140.67 59.0035 139.964L52.8087 137.349C57.0564 137.004 63.9424 137.905 71.1714 139.753C70.1372 140.52 74.2688 141.061 75.989 142.188C73.4667 140.054 77.0231 141.421 77.9413 141.541C78.0522 144.261 87.8087 144.637 90.79 146.831C92.6314 143.465 103.417 146.68 108.583 146.455C111.105 148.588 105.485 145.147 106.514 147.987L110.53 149.415C108.804 151.894 102.958 146.62 104.33 150.407C108.688 152.781 110.757 151.248 113.511 151.609C113.97 151.669 114.313 152.615 113.854 152.555L117.184 152.089C121.885 155.41 123.146 156.477 127.046 158.791C131.41 157.559 136.116 157.273 141.625 157.994C223.344 165.086 297.359 181.088 378.72 198.052C416.015 205.64 450.556 212.867 486.131 219.328C491.877 214.67 501.179 211.379 508.983 212.4C607.91 227.155 700.208 221.204 792.006 244.043C798.659 246.717 805.888 248.565 812.542 251.24L814.495 250.594L813.344 252.247C819.655 253.975 825.85 256.589 832.161 258.317C833.538 258.497 834.456 258.618 835.717 259.685L836.751 258.918L837.095 259.865C837.554 259.925 838.013 259.985 838.472 260.045C838.931 260.105 839.39 260.165 839.849 260.225L840.424 259.399C840.424 259.399 840.424 259.399 840.767 260.346C842.144 260.526 843.521 260.706 844.899 260.887C845.817 261.007 846.735 261.127 847.653 261.247C849.03 261.427 849.948 261.548 851.326 261.728C851.785 261.788 852.36 260.962 852.935 260.135C853.626 258.422 852.708 258.302 853.742 257.536C855.23 260.436 858.797 254.59 859.594 259.203C857.526 260.736 857.299 258.903 855.689 260.496C856.148 260.556 855.689 260.496 855.805 259.609L855.346 259.549C855.805 259.609 855.921 258.723 855.578 257.776C854.201 257.596 855.346 259.549 854.312 260.315C863.15 260.571 871.989 260.826 880.827 261.081C880.827 261.081 880.943 260.195 880.484 260.135L881.059 259.308C881.518 259.369 881.402 260.255 881.286 261.142C882.204 261.262 883.122 261.382 884.041 261.502L885.191 259.849L885.075 260.736C885.075 260.736 885.075 260.736 884.616 260.676C884.616 260.676 884.616 260.676 885.075 260.736L885.534 260.796C905.506 261.607 925.594 261.532 945.223 261.396C938.337 260.495 931.451 259.593 924.681 257.805C924.681 257.805 924.106 258.632 923.647 258.572C923.647 258.572 923.647 258.572 923.763 257.685C913.663 256.363 903.221 254.094 893.121 252.772C893.121 252.772 893.005 253.658 892.546 253.598L892.662 252.712L892.203 252.652C891.744 252.592 891.169 253.418 891.512 254.365C891.169 253.418 890.71 253.358 890.594 254.244C890.594 254.244 890.71 253.358 890.826 252.471C889.908 252.351 888.299 253.944 888.188 251.224C886.81 251.044 885.892 250.924 884.515 250.743C884.858 251.69 885.317 251.75 885.776 251.81L885.544 253.583C885.085 253.523 885.66 252.697 885.776 251.81C884.626 253.463 883.824 252.456 882.331 253.163L882.447 252.276L881.872 253.103C881.645 251.269 882.447 252.276 882.563 251.39C882.906 252.336 882.79 253.223 883.708 253.343C883.824 252.456 883.94 251.57 883.481 251.51C883.481 251.51 883.481 251.51 883.597 250.623C869.941 247.934 856.628 246.191 842.972 243.501L842.397 244.328L842.74 245.274C842.624 246.161 841.822 245.154 841.363 245.094L841.479 244.208L840.561 244.087C841.02 244.147 841.368 241.488 840.793 242.314C840.677 243.201 841.136 243.261 840.561 244.087C840.561 244.087 840.677 243.201 840.793 242.314C814.283 237.942 788.349 232.743 762.53 226.658C757.939 226.057 755.533 223.037 756.224 221.324C757.491 218.784 761.395 217.492 765.986 218.093C781.135 220.076 796.284 222.059 811.434 224.043C812.468 223.276 813.618 221.623 814.077 221.684C814.077 221.684 813.961 222.57 813.845 223.457L814.879 222.69L814.647 224.463L813.729 224.343L813.613 225.23C817.285 225.711 820.958 226.191 824.63 226.672C825.206 225.846 826.24 225.079 826.815 224.253C827.158 225.2 826.356 224.193 826.124 225.966L826.583 226.026C826.583 226.026 826.583 226.026 826.467 226.913C826.926 226.973 827.385 227.033 827.844 227.093C830.139 227.393 832.435 227.694 834.271 227.934C851.256 230.158 868.701 232.442 885.686 234.665C885.918 232.892 886.145 234.726 887.296 233.073C887.179 233.959 887.179 233.959 887.063 234.846L886.604 234.786C888.441 235.026 890.736 235.327 892.572 235.567L893.147 234.74C892.688 234.68 892.345 233.734 891.77 234.56C892.577 231.961 893.263 233.854 894.071 231.254C894.414 232.201 893.838 233.027 893.722 233.914C894.641 234.034 894.989 231.375 895.791 232.381L895.216 233.208L896.477 234.275C897.052 233.448 896.825 231.615 897.627 232.622C897.627 232.622 897.168 232.562 896.593 233.388L896.936 234.335C896.361 235.161 896.018 234.215 895.443 235.041C895.786 235.988 895.786 235.988 896.129 236.934L897.279 235.281L896.936 234.335C898.086 232.682 898.202 231.795 899.579 231.976L899.806 233.809C899.806 233.809 899.231 234.635 898.772 234.575L898.656 235.462C899.115 235.522 899.922 232.922 900.149 234.755L901.416 232.216L901.3 233.103C902.334 232.336 901.527 234.936 902.561 234.169L902.218 233.223C903.02 234.229 903.484 230.683 904.861 230.864L905.779 230.984C905.204 231.81 905.088 232.697 904.972 233.583C905.547 232.757 905.663 231.87 906.465 232.877C906.006 232.817 905.088 232.697 905.315 234.53C905.774 234.59 905.774 234.59 905.89 233.704L904.049 237.069L904.165 236.183C903.822 235.236 902.672 236.889 903.015 237.836C905.31 238.136 907.605 238.437 909.901 238.737C910.017 237.851 910.017 237.851 909.558 237.791C909.558 237.791 910.708 236.138 910.476 237.911C910.133 236.964 909.442 238.677 909.442 238.677C910.819 238.857 912.196 239.038 913.573 239.218C913.689 238.332 912.771 238.211 912.887 237.325L912.312 238.151C912.428 237.265 912.887 237.325 913.462 236.498C913.921 236.558 913.23 238.271 914.148 238.392L914.956 235.792L914.496 235.732C915.531 234.966 917.024 234.259 917.135 236.979C916.101 237.745 915.299 236.739 914.264 237.505C914.148 238.392 915.066 238.512 915.183 237.625C915.985 238.632 914.607 238.452 914.491 239.338C914.607 238.452 914.148 238.392 914.032 239.278C914.032 239.278 914.032 239.278 913.916 240.165C918.048 240.706 921.72 241.186 925.852 241.727C925.852 241.727 925.166 239.834 926.427 240.901L926.311 241.787L926.77 241.848C928.152 238.422 930.443 242.328 932.284 238.962C932.511 240.796 933.086 239.969 934.347 241.036L934.922 240.21L935.265 241.156L934.806 241.096C935.149 242.043 934.231 241.923 933.656 242.749L933.313 241.802C932.738 242.629 932.279 242.569 931.245 243.335C939.508 244.417 947.771 245.499 956.493 246.641L957.068 245.814L956.952 246.701C965.215 247.782 973.479 248.864 982.201 250.006L982.776 249.18C982.66 250.066 984.496 250.307 985.53 249.54C985.53 249.54 985.53 249.54 985.414 250.427C986.792 250.607 987.71 250.727 989.087 250.908C989.546 250.968 989.546 250.968 990.005 251.028C990.923 251.148 992.3 251.328 993.218 251.449C993.335 250.562 993.794 250.622 994.253 250.682C993.794 250.622 994.137 251.569 993.678 251.509L994.137 251.569C994.137 251.569 994.596 251.629 994.253 250.682C994.712 250.742 995.055 251.689 995.514 251.749C1000.1 252.35 1005.15 253.011 1009.74 253.612C1009.74 253.612 1009.74 253.612 1010.32 252.786C1010.32 252.786 1010.32 252.786 1010.2 253.672C1010.66 253.732 1011.58 253.853 1012.04 253.913C1012.16 253.026 1011.81 252.079 1011.35 252.019L1010.32 252.786L1010.55 251.013L1009.17 250.832L1010.56 247.406L1012.74 248.593C1014.46 246.114 1015.61 248.067 1016.98 248.248L1018.13 246.595C1019.51 246.775 1021.12 245.182 1022.15 248.022L1022.38 246.249C1022.61 248.082 1023.42 245.483 1023.88 245.543C1024.22 246.49 1023.18 247.256 1023.87 249.149L1021.8 250.682L1023.98 251.869L1023.87 252.756C1026.85 251.343 1029.95 249.044 1033.4 247.692L1035.01 246.099L1034.89 246.985C1037.42 245.513 1040.29 244.987 1043.28 243.574L1044.31 242.808C1045.35 242.042 1046.26 242.162 1047.76 241.456C1047.41 240.509 1047.41 240.509 1046.5 240.389C1046.61 239.502 1047.53 239.622 1047.65 238.736C1047.19 238.676 1046.73 238.616 1046.61 239.502C1046.39 237.669 1046.15 239.442 1046.84 237.729L1046.39 237.669C1047.76 237.849 1047.19 235.069 1048.45 236.136L1047.88 236.963C1047.76 237.849 1048.68 237.97 1049.14 238.03L1049.83 236.317C1050.29 236.377 1049.71 237.203 1050.17 237.263L1051.21 236.497C1051.21 236.497 1051.09 237.383 1051.55 237.444C1051.55 237.444 1050.98 238.27 1051.44 238.33C1051.44 238.33 1051.89 238.39 1052.01 237.504C1051.43 238.33 1051.43 238.33 1051.78 239.277C1053.27 238.571 1055.22 237.924 1056.6 238.105L1057.18 237.278L1057.52 234.619C1056.72 233.612 1055.8 233.492 1055.34 233.432L1054.31 234.198L1054.43 233.311L1054.89 233.371L1056.38 232.665L1059.36 234.859L1058.44 238.345C1083.13 231.658 1113.32 229.299 1140.18 231.011C1156.36 232.228 1171.28 235.985 1186.08 240.628C1179.08 240.613 1171.96 241.484 1164.5 241.409C1185.15 244.114 1202.48 250.89 1219.23 258.494C1220.6 258.674 1222.56 258.028 1223.93 258.208C1265.85 244.759 1313.02 251.836 1358.13 249.627C1356.87 252.166 1355.48 255.592 1354.22 258.132C1362.83 256.554 1368.12 251.835 1377.07 251.204C1374.43 253.563 1371.9 255.036 1368.91 256.448L1369.37 256.509C1379.71 252.451 1391.53 251.294 1403.47 252.857C1432.07 241.271 1466.28 236.733 1501.41 235.921C1506.46 232.976 1513.24 231.158 1521.16 231.293C1524.49 230.827 1528.74 230.482 1531.26 229.009C1554.81 216.762 1582.49 208.663 1612.57 203.584C1606.71 205.522 1600.28 208.287 1594.42 210.226C1603.61 207.821 1612.22 206.243 1621.52 206.559C1620.37 208.212 1618.76 209.805 1617.61 211.457C1647.81 201.885 1687.06 208.827 1705.05 228.316C1723.05 247.805 1712.79 272.613 1682.13 282.125L1677.77 283.357C1692.23 287.053 1704.38 294.055 1710.34 305.656C1713.31 311.456 1709.05 319.014 1707.32 325.1C1707.42 335.032 1694.33 342.335 1679.06 341.238C1674.93 340.697 1670.8 340.156 1667.24 338.789C1664.37 339.315 1662.08 339.014 1659.21 339.54L1658.17 340.307L1656.33 343.672L1655.98 346.332L1658.39 345.746L1656.33 347.279L1656.21 348.165C1656.67 348.225 1657.13 348.285 1658.05 348.406C1658.05 348.406 1658.05 348.406 1657.93 349.292L1659.53 351.306L1660.46 347.82L1661.25 352.433L1663.44 350.013L1665.16 347.534L1667.46 347.835L1668.15 349.728L1669.52 349.908L1672.28 350.269L1674.23 349.623L1674.34 352.342L1675.39 344.363L1675.73 345.31L1678.72 343.898L1680.32 345.911C1679.74 346.738 1679.17 347.564 1678.13 348.33L1679.28 346.677L1677.56 345.55C1677.11 345.49 1676.65 345.43 1676.41 347.203L1677.79 347.384C1676.64 349.037 1676.53 346.317 1675.72 348.916L1676.29 351.696C1676.75 351.756 1677.21 351.816 1677.55 352.763C1679.39 353.003 1682.26 352.477 1686.51 352.132C1686.51 352.132 1686.51 352.132 1679.96 355.783C1679.96 355.783 1679.96 355.783 1685.93 352.958C1685.93 352.958 1685.93 352.958 1683.86 358.097C1683.86 358.097 1683.86 358.097 1686.85 353.078C1686.85 353.078 1686.85 353.078 1688.68 356.925C1688.68 356.925 1688.68 356.925 1700.87 345.896C1701.78 346.016 1703.5 347.143 1708.44 348.691C1708.44 348.691 1709.7 349.757 1710.39 351.651C1710.15 353.424 1710.15 353.424 1714.16 358.458C1714.16 358.458 1713.93 360.231 1713.24 361.944C1711.63 363.536 1711.63 363.536 1711.05 367.969C1711.05 367.969 1709.44 369.562 1706.91 371.035C1704.96 371.681 1704.04 371.561 1696.23 374.145C1696.58 375.092 1697.38 376.099 1697.72 377.045C1698.05 385.204 1697.94 386.091 1688.05 401.027C1695.28 399.269 1702.17 396.564 1709.52 393.919C1702.86 398.457 1695.05 401.042 1686.32 403.506C1686.32 403.506 1686.32 403.506 1685.74 404.333C1685.74 404.333 1680 408.991 1670.7 412.282L1670.12 413.108L1669.78 412.162C1668.86 412.041 1667.94 411.921 1667.37 412.748C1667.25 413.634 1667.25 413.634 1667.13 414.521L1665.98 416.174C1665.98 416.174 1665.76 414.34 1665.18 415.167C1665.3 414.28 1666.22 414.401 1667.25 413.634C1666.79 413.574 1666.79 413.574 1666.33 413.514C1665.87 413.454 1665.87 413.454 1665.41 413.394C1665.41 413.394 1665.41 413.394 1665.3 414.28C1664.26 415.047 1662.43 414.806 1662.43 414.806C1661.51 414.686 1659.67 414.446 1659.79 413.559C1657.49 413.259 1655.08 413.845 1651.29 414.25C1651.75 414.311 1652.21 414.371 1651.52 416.084C1652.32 417.09 1652.79 413.544 1653.13 414.491C1653.24 417.211 1655.88 414.851 1656 417.571C1655.88 418.458 1655.76 419.344 1655.76 419.344C1655.3 419.284 1655.54 417.511 1655.19 416.564C1654.04 418.217 1652.9 416.264 1651.41 416.97L1651.64 415.197C1651.06 416.024 1650.03 416.79 1650.25 418.623C1650.6 419.57 1651.17 418.743 1651.17 418.743C1651.17 418.743 1650.82 421.403 1649.91 421.283C1649.91 421.283 1649.56 420.336 1649.1 420.276L1648.99 421.162C1647.95 421.929 1648.76 419.329 1647.84 419.209L1648.42 418.383C1647.96 418.323 1647.96 418.323 1647.5 418.262L1647.62 417.376C1647.16 417.316 1646.58 418.142 1646.12 418.082C1647.05 414.596 1647.84 419.209 1649.11 416.67L1649.23 415.783C1648.77 415.723 1648.19 416.549 1648.19 416.549C1648.31 415.663 1648.31 415.663 1648.42 414.776C1648.42 414.776 1648.42 414.776 1647.96 414.716L1647.85 415.603C1647.85 415.603 1647.05 414.596 1646.81 416.369L1646.93 415.483C1646.01 415.362 1646.58 418.142 1645.66 418.022C1646.12 418.082 1646.24 417.196 1646.24 417.196L1644.86 417.015L1644.98 416.129C1644.98 416.129 1644.98 416.129 1644.52 416.069C1644.06 416.009 1643.6 415.948 1642.57 416.715C1642.11 416.655 1641.65 416.595 1641.65 416.595C1637.97 419.72 1637.4 420.547 1634.29 422.846C1636.59 423.146 1638.31 424.273 1640.03 425.4C1644.73 428.721 1645.07 433.274 1640.01 436.219C1641.04 439.059 1641.15 441.779 1641.26 444.498C1641.26 444.498 1641.26 444.498 1641.72 444.558L1641.61 445.445L1642.07 445.505C1641.94 449.998 1640.91 454.37 1638.95 458.623C1642.74 458.217 1645.95 458.638 1649.28 458.172L1650.09 455.572C1649.28 458.172 1651 455.693 1650.77 457.466C1650.77 457.466 1650.77 457.466 1650.66 458.352L1651.12 458.412L1651.23 457.526L1651.57 458.472C1672.58 458.517 1686.58 462.154 1681.74 474.144C1678.29 482.709 1669.67 487.894 1657.5 491.71C1657.04 491.65 1657.04 491.65 1657.04 491.65C1655.08 492.296 1653.59 493.003 1651.76 492.762C1650.84 492.642 1649.8 493.408 1648.43 493.228L1647.85 494.054L1648.77 494.175L1647.62 495.828C1648.08 495.888 1647.73 494.941 1647.73 494.941C1646.82 494.821 1645.9 494.701 1644.98 494.58C1642.57 495.166 1640.62 495.813 1638.32 495.512C1638.66 496.459 1639.01 497.405 1639.81 498.412C1641.87 504.092 1643.47 509.712 1644.03 516.098C1644.49 516.158 1644.95 516.218 1645.41 516.278L1644.83 517.105L1645.63 518.111C1644.72 517.991 1644.26 517.931 1644.26 517.931C1644.26 517.931 1644.14 518.818 1644.6 518.878C1645.52 518.998 1645.98 519.058 1646.9 519.178C1647.01 518.292 1647.13 517.405 1646.55 518.232C1647.59 517.465 1647.7 516.579 1648.51 517.585C1648.05 517.525 1647.93 518.412 1648.39 518.472C1648.74 515.812 1650.11 519.599 1650.8 517.886C1650.8 517.886 1650.8 517.886 1650.68 518.773C1651.14 518.833 1651.26 517.946 1651.72 518.006C1651.26 517.946 1651.6 518.893 1651.14 518.833L1652.06 518.953C1652.98 519.073 1653.44 519.133 1654.36 519.253C1654.82 519.313 1655.28 519.374 1655.28 519.374C1655.28 519.374 1655.28 519.374 1655.39 518.487C1655.39 518.487 1655.85 518.547 1655.73 519.434C1666.41 519.929 1676.51 521.252 1686.49 523.46C1675.12 528.284 1668.45 536.428 1652.84 537.991C1648.59 538.337 1644.34 538.682 1640.09 539.028C1635.61 544.753 1629.29 550.238 1620.79 554.535L1617.23 556.774L1619.28 566.06C1602.83 588.254 1573.77 603.386 1554.8 623.446L1540.9 633.348C1540.44 633.288 1540.32 634.175 1539.86 634.115C1539.86 634.115 1540.32 634.175 1540.21 635.061C1540.89 636.955 1540.09 635.948 1538.83 634.881C1528.49 642.544 1514.36 647.007 1498.4 647.624L1480.5 648.886C1476.82 648.405 1457.53 646.718 1453.86 646.237C1465.32 654.952 1437.35 646.322 1477.77 665.588C1453.28 664.826 1462.17 671.711 1462.18 668.105L1504.03 673.711C1510.69 669.173 1509.26 678.803 1514.09 674.024C1513.86 675.797 1515.7 676.038 1514.2 676.744C1507.66 676.789 1485.09 675.884 1477.39 677.583C1463.08 678.638 1499.22 682.996 1492.34 689.053C1475.88 703.548 1426.97 704.055 1381.65 693.612C1342.74 687.617 1328.26 705.335 1280.88 700.66L1275.75 704.139C1271.73 702.712 1269.21 704.184 1264.96 704.53C1265.19 702.757 1267.43 700.948 1269.39 700.302C1264.8 699.701 1261.52 702.276 1257.04 700.789C1256.58 700.729 1256.13 700.668 1256.01 701.555C1258.76 701.916 1257.5 704.455 1262.32 703.283L1259.68 705.642C1261.52 702.276 1256.58 704.335 1255.66 704.215L1256 705.161C1251.99 703.734 1251.07 703.614 1247.75 700.473C1247.75 700.473 1248.21 700.533 1248.32 699.647C1176.14 687.491 1104.18 673.563 1029.94 655.727C938.831 634.782 856.79 612.319 766.929 599.653C703.361 582.313 641.862 563.441 580.479 543.682L580.363 544.568C579.904 544.508 580.02 543.622 580.02 543.622C575.545 542.134 571.07 540.647 566.596 539.159C565.219 538.979 563.725 539.685 562.005 538.558C559.71 538.258 559.478 540.031 557.525 540.677L561.082 542.044L557.177 543.337L557.293 542.45C553.621 541.969 546.392 540.121 545.358 540.887L546.276 541.008C541.342 539.46 538.239 541.759 532.277 537.371C529.633 539.731 535.258 539.565 533.992 542.105C530.662 542.57 526.42 539.31 526.188 541.083C531.121 542.631 533.987 545.711 539.268 544.599L542.593 547.739C540.181 548.325 536.625 546.958 536.736 549.678C537.538 550.685 542.931 552.292 540.519 552.878C541.21 551.165 537.538 550.685 537.422 551.571L539.142 552.698C535.585 551.331 535.702 550.444 532.256 551.797C534.092 552.037 534.894 553.044 536.155 554.111C535.696 554.05 535.696 554.05 535.237 553.99C534.546 555.703 535.464 555.824 532.478 557.236C530.642 556.996 532.71 555.463 530.415 555.162C525.249 555.388 514.584 547.68 514.579 551.286L515.84 552.353L509.646 549.738C511.825 550.925 510.68 548.972 511.139 549.032L498.633 544.689C499.668 543.923 502.422 544.284 503.567 546.237C506.321 546.598 506.896 545.771 507.129 543.998C513.207 547.499 516.194 546.087 521.128 547.634L519.064 545.561C521.703 546.808 522.737 546.042 524.8 548.115C528.589 547.709 526.641 544.749 523.544 543.442C522.51 544.208 520.674 543.968 517.576 542.661C518.61 541.894 517.465 539.941 515.745 538.814C514.025 537.687 507.598 536.846 505.076 534.712C507.028 534.066 508.521 533.36 510.474 532.714C515.407 534.261 521.945 537.822 527.111 537.597C526.425 535.704 520.689 533.149 519.196 533.855C521.264 532.323 515.296 531.541 515.872 530.715C511.165 531.001 508.3 527.92 505.661 526.673L499.229 529.438C503.245 530.865 499.456 531.271 504.849 532.879C499.34 532.158 504.042 535.478 496.813 533.63C494.29 531.497 488.439 529.829 485.225 529.408C487.172 532.368 480.402 530.58 480.059 529.633L484.191 530.174C485.8 528.582 480.059 529.633 483.505 528.281C480.407 526.974 476.735 526.493 475.585 528.146C471.453 527.605 475.358 526.313 472.603 525.952C471.796 528.552 464.229 522.151 466.979 526.117C468.815 526.358 470.076 527.425 471.912 527.665C469.728 530.084 466.287 527.83 460.435 526.163C461.354 526.283 462.847 525.577 462.847 525.577C461.818 522.737 459.633 525.156 457.111 523.022L459.174 525.096C454.816 522.722 448.732 522.827 446.442 518.92C439.213 517.072 432.216 513.451 425.789 512.609L426.939 510.956C418.444 511.648 413.178 501.941 405.717 501.866C404.688 499.026 391.032 496.336 397.691 495.405C404.345 498.079 412.033 499.987 416.734 503.308L422.475 502.256C426.142 506.343 432.453 508.071 436.126 508.552C433.603 506.418 439.112 507.14 440.949 507.38C439.914 508.146 442.21 508.447 443.128 508.567C444.505 508.747 441.181 505.607 444.853 506.088L445.196 507.034C446.916 508.161 448.869 507.515 448.869 507.515C443.133 504.961 436.938 502.346 430.743 499.732C430.86 498.845 430.976 497.959 430.057 497.839C428.221 497.598 421.108 494.863 424.432 498.004C421.562 498.53 420.533 495.69 417.32 495.269L418.697 495.45C416.175 493.316 410.666 492.595 412.275 491.002C412.85 490.175 414.111 491.242 415.029 491.362L414.57 491.302C421.224 493.977 425.588 492.745 431.899 494.473C432.126 496.306 435.339 496.727 437.978 497.974C437.756 492.534 446.927 500.949 452.436 501.67L451.86 502.496C456.799 500.438 469.068 510.16 468.962 503.834C466.667 503.533 463.226 501.279 461.39 501.039C466.667 503.533 471.716 504.194 476.766 504.855C466.556 500.813 456.921 495.945 447.745 491.137C446.367 490.956 445.449 490.836 444.072 490.656C444.531 490.716 445.106 489.89 445.565 489.95C443.386 488.763 441.207 487.576 439.027 486.389L435.93 485.081C436.848 485.201 436.848 485.201 437.307 485.262C434.21 483.954 431.571 482.707 428.59 480.513L422.279 478.785C422.738 478.846 423.657 478.966 424.232 478.139C422.511 477.012 420.332 475.825 418.612 474.698L415.625 476.111L415.741 475.224L418.612 474.698C417.694 474.578 416.433 473.511 415.515 473.391L413.905 474.984L413.103 473.977C413.103 473.977 413.219 473.091 413.335 472.204C412.876 472.144 412.417 472.084 412.417 472.084C407.826 471.483 400.83 467.862 399.336 468.568C399.563 470.401 403.009 469.049 401.057 469.695L394.746 467.967L395.664 468.087L390.044 464.646C392.572 463.174 397.041 468.267 398.65 466.675L395.669 464.481C396.128 464.541 398.307 465.728 398.882 464.901L398.08 463.895C392.345 461.34 387.184 457.96 381.448 455.405C380.989 455.345 380.873 456.232 381.675 457.238C383.971 457.539 385.691 458.666 387.986 458.966C385.802 461.386 380.984 458.951 373.755 457.103C374.673 457.223 377.085 456.637 376.626 456.577C375.254 452.791 372.494 456.036 369.513 453.843L371.919 456.863C366.642 454.368 358.722 454.233 355.63 449.32C346.565 447.231 337.731 443.37 329.468 442.288L331.078 440.695C320.746 441.146 313.643 431.199 304.003 429.937C302.631 426.15 285.646 423.926 293.682 423.175C302.172 426.09 311.696 428.239 317.775 431.74L325.009 429.981C330.054 434.249 338.201 436.217 341.873 436.698C340.612 435.631 341.187 434.805 342.105 434.925C340.385 433.798 340.501 432.911 341.536 432.145C343.029 431.439 345.783 431.799 347.16 431.98C349.456 432.28 351.635 433.467 353.471 433.708C347.276 431.093 340.623 428.419 334.312 426.691C334.428 425.804 334.544 424.918 333.167 424.737C330.871 424.437 321.922 421.462 325.706 424.662C321.917 425.068 320.888 422.228 316.756 421.687L318.593 421.927C315.611 419.734 308.725 418.832 310.335 417.239C310.91 416.413 312.63 417.54 314.007 417.72L313.548 417.66C322.038 420.575 326.977 418.516 335.467 421.431C335.578 424.151 339.826 423.806 342.923 425.113C342.817 418.787 354.168 428.388 361.054 429.29L360.479 430.116C366.452 427.291 382.735 438.441 381.712 431.994C378.957 431.634 374.599 429.26 372.303 428.959C386.07 434.368 398.929 432.445 414.416 438.981L414.3 439.868C417.055 440.228 421.872 442.663 425.888 444.09L424.626 443.023C424.626 443.023 425.545 443.143 426.806 444.21C430.362 445.578 434.035 446.058 435.069 445.292C435.987 445.412 436.789 446.419 437.707 446.539L435.987 445.412C439.427 447.666 437.939 444.766 438.974 444C437.713 442.933 437.137 443.759 436.219 443.639C437.369 441.986 445.744 445.788 448.271 444.315C447.696 445.142 449.416 446.269 450.334 446.389C448.725 447.982 439.892 444.12 439.085 446.719C445.279 449.334 452.624 450.296 455.49 453.376C468.692 452.399 486.696 464.675 499.671 461.865L497.376 461.565C487.16 461.129 477.409 457.147 472.939 452.053C471.794 450.1 470.533 449.033 470.306 447.2C419.587 435.149 368.868 423.099 319.758 409.456C318.381 409.275 318.492 411.995 315.97 409.862C315.627 408.915 315.627 408.915 316.086 408.975C305.76 405.82 295.433 402.664 285.107 399.509L285.566 399.569C285.107 399.509 285.107 399.509 284.648 399.449C281.55 398.141 278.796 397.781 275.699 396.474C275.123 397.3 276.501 397.48 277.762 398.547C273.63 398.006 268.929 394.686 265.029 392.372C264.111 392.251 263.193 392.131 262.391 391.124C259.294 389.817 257.689 387.804 258.381 386.091C256.887 386.797 255.51 386.617 253.79 385.49C245.875 381.748 237.385 378.833 227.976 375.798C225.797 374.611 224.995 373.604 226.029 372.838C227.064 372.072 229.475 371.486 231.195 372.612C240.603 375.648 250.012 378.683 258.386 382.484C259.304 382.605 259.647 383.551 259.99 384.498C261.942 383.852 265.272 383.386 268.369 384.693C276.057 386.601 283.861 387.623 291.549 389.531L290.747 388.525L294.995 388.179L294.879 389.065C302.108 390.914 293.739 383.506 304.065 386.661L304.867 387.668C303.031 387.428 301.77 386.361 300.736 387.127C301.079 388.074 305.553 389.561 307.849 389.862L308.999 388.209C316.798 392.837 326.665 395.932 334.923 400.62C335.841 400.74 336.759 400.861 337.678 400.981C340.205 399.508 346.632 400.35 343.535 399.042C344.11 398.216 336.195 394.474 338.031 394.715L344.342 396.443L344.11 398.216C346.405 398.516 348.933 397.044 352.257 400.184C352.943 402.078 354.547 404.091 357.76 404.512C365.332 407.307 371.532 406.315 379.104 409.11C382.086 411.303 384.381 411.604 386.444 413.677C386.903 413.738 387.363 413.798 386.787 414.624L387.246 414.684C390.001 415.045 392.639 416.292 395.393 416.653C400.786 418.26 406.295 418.981 411.688 420.589L410.886 419.582C412.263 419.763 414.558 420.063 414.674 419.177C410.084 418.576 404.237 413.302 398.955 414.414C402.285 413.948 395.288 410.326 401.14 411.994L400.68 411.934C404.585 410.642 415.825 417.524 419.386 415.285C421.565 416.472 419.729 416.232 419.497 418.005L423.513 419.432C421.101 420.018 425.233 420.559 421.444 420.965C421.56 420.078 420.642 419.958 420.299 419.011C413.413 418.11 417.313 420.424 418.115 421.431C421.328 421.851 424.426 423.159 427.639 423.579L431.201 421.34C428.562 420.093 426.383 418.906 425.238 416.953L429.829 417.554C425.354 416.066 420.88 414.579 416.289 413.978C415.139 415.631 410.78 413.256 407.683 411.949C409.519 412.19 410.437 412.31 411.355 412.43C397.356 408.794 383.473 404.271 369.015 400.575C325.298 388.539 285.143 374.265 240.503 365.715C238.208 365.415 236.487 364.288 237.062 363.461C237.638 362.635 239.59 361.989 241.885 362.289C261.968 365.82 281.017 370.118 300.408 375.362C296.509 373.048 293.528 370.854 289.739 371.259L291.691 370.613L291.575 371.5C296.509 373.048 293.185 369.907 295.48 370.208C292.726 369.847 287.217 369.126 284.119 367.819C279.186 366.271 284.23 370.538 278.837 368.931C278.151 367.037 281.597 365.685 282.056 365.745C281.94 366.632 281.481 366.571 282.399 366.692L297.432 369.561C299.955 371.695 296.625 372.161 294.673 372.807C298.229 374.174 302.704 375.662 306.144 377.916C343.091 388.163 379.004 399.177 416.41 409.485C418.246 409.725 420.426 410.912 422.262 411.153C449.342 418.305 477.456 424.691 507.411 427.711C511.083 428.191 514.756 428.672 518.428 429.153C508.334 424.225 498.24 419.296 488.146 414.368C487.687 414.307 486.652 415.074 488.03 415.254C491.818 414.848 488.489 415.314 493.422 416.862L489.291 416.321L490.436 418.274C480.912 416.126 472.194 411.378 465.768 410.536L465.424 409.589C465.884 409.65 466.343 409.71 466.802 409.77C464.279 407.636 467.266 406.224 468.759 405.517C464.739 407.696 473.809 406.178 475.872 408.252C474.954 408.132 475.413 408.192 475.297 409.078L478.97 409.559C479.086 408.673 478.626 408.613 478.626 408.613C464.058 402.197 449.605 394.894 435.036 388.478C433.2 388.238 431.822 388.057 429.986 387.817C429.411 388.643 432.968 390.011 434.229 391.078C431.933 390.777 430.097 390.537 428.029 392.069C426.309 390.942 428.261 390.296 425.507 389.936C423.786 388.809 424.821 388.042 426.198 388.223C418.394 387.201 411.165 385.353 403.361 384.331L402.901 384.271C408.294 385.879 415.982 387.787 420.684 391.108L419.19 391.814C422.863 392.295 426.303 394.549 428.024 395.676C420.336 393.767 413.45 392.866 412.188 391.799C412.648 391.859 412.305 390.913 412.305 390.913C409.777 392.385 400.944 388.523 401.973 391.363C406.68 391.078 412.753 398.185 414.711 393.933L417.692 396.127C418.383 394.414 422.167 397.614 424.235 396.081L423.544 397.794L427.559 399.222C428.134 398.395 426.757 398.215 426.414 397.268L431.58 397.043L435.02 399.297C441.22 398.305 450.85 406.78 456.707 404.841L456.248 404.781C458.771 406.915 462.327 408.282 465.308 410.476C461.404 411.768 455.441 407.381 451.996 408.733C444.65 407.772 438.804 402.497 432.72 402.603C431.57 404.256 436.735 404.03 436.503 405.803L432.145 403.429L430.995 405.082C427.554 402.828 424.341 402.407 421.127 401.987C414.7 401.145 400.712 390.297 393.361 392.941L385.441 392.806C382.919 390.672 381.658 389.606 380.856 388.599C382.117 389.666 383.151 388.899 384.412 389.966C385.104 388.253 379.938 388.479 383.267 388.013L387.399 388.554C387.858 388.614 388.776 388.734 389.235 388.794C392.449 389.215 396.232 392.415 398.759 390.943C399.91 389.29 393.14 387.502 389.699 385.248L384.307 383.64C384.65 384.587 378.455 381.972 377.194 380.905C371.685 380.184 366.176 379.463 360.324 377.795C362.161 378.036 364.456 378.336 364.799 379.283C362.045 378.922 358.372 378.441 355.734 377.194C351.143 376.593 346.668 375.106 342.078 374.505C346.436 376.879 348.621 374.459 353.322 377.78L349.766 376.413C351.945 377.6 349.191 377.239 346.895 376.939L342.078 374.505C339.782 374.204 337.946 373.964 335.651 373.663C335.651 373.663 335.651 373.663 335.535 374.55L334.274 373.483C329.683 372.882 325.551 372.341 321.077 370.853C321.536 370.914 322.338 371.92 323.256 372.041C321.879 371.86 320.386 372.566 318.549 372.326C321.188 373.573 321.304 372.687 322.908 374.7C320.153 374.34 312.697 370.658 315.109 370.072L317.404 370.373C268.173 361.222 219.058 351.185 169.944 341.148C165.812 340.607 162.372 338.353 163.063 336.64C163.295 334.867 167.2 333.575 171.331 334.116C220.915 337.001 270.5 339.885 320.2 341.883C316.644 340.516 313.546 339.208 309.99 337.841L300.006 335.632C268.331 331.485 236.655 327.339 204.521 323.132C192.469 322.455 183.525 315.874 183.419 309.548C184.232 303.342 193.075 299.991 204.209 300.547C203.75 300.487 203.75 300.487 203.75 300.487C202.373 300.307 201.111 299.24 199.734 299.06C197.898 298.819 196.753 296.866 197.328 296.039C198.362 295.273 200.774 294.687 202.61 294.927C204.446 295.168 206.166 296.295 208.003 296.535C211.675 297.016 215.464 296.61 218.218 296.971C216.266 297.617 220.857 298.218 223.036 299.405L223.843 296.805C225.563 297.932 228.318 298.293 229.811 297.587C229.695 298.473 228.544 300.126 230.724 301.313C233.019 301.614 235.774 301.974 238.069 302.275C238.185 301.388 238.992 298.789 243.81 301.223C242.892 301.103 242.776 301.989 243.235 302.049C249.662 302.891 256.205 302.846 262.173 303.627C260.795 303.447 259.418 303.266 261.829 302.68L267.454 302.515L267.338 303.402C269.291 302.755 272.388 304.063 275.485 305.37C277.322 305.61 279.158 305.851 280.994 306.091C281.453 306.151 281.453 306.151 282.028 305.325C283.638 303.732 274.688 300.757 270.789 298.443L271.132 299.389C271.475 300.336 259.888 296.114 261.381 295.408C263.217 295.648 262.874 294.701 262.99 293.815C259.318 293.334 256.679 292.087 253.925 291.726C238.776 289.743 223.743 286.873 208.134 284.83C209.395 285.897 209.279 286.783 207.786 287.489C206.293 288.196 203.538 287.835 202.277 286.768C201.016 285.701 201.132 284.815 202.625 284.109C166.818 279.421 130.895 275.62 94.8558 272.705C92.5604 272.404 90.8403 271.277 91.4154 270.451C91.0724 269.504 93.0247 268.858 95.3201 269.159ZM186.925 186.469C187.041 185.582 186.582 185.522 186.582 185.522C186.466 186.409 186.466 186.409 186.925 186.469ZM840.218 243.141C839.759 243.081 839.759 243.081 840.218 243.141V243.141ZM896.588 236.994C897.047 237.054 897.163 236.168 897.163 236.168C896.704 236.108 896.704 236.108 896.588 236.994ZM901.753 236.769C901.637 237.655 901.178 237.595 901.178 237.595C901.637 237.655 902.096 237.716 902.556 237.776C902.212 236.829 902.329 235.942 901.753 236.769ZM928.495 239.368C927.461 240.135 927.002 240.074 926.543 240.014C927.002 240.074 927.461 240.135 927.92 240.195C928.379 240.255 928.379 240.255 928.495 239.368ZM243.493 282.245L244.295 283.252C241.773 281.118 239.82 281.764 238.791 278.924C235.23 281.163 225.6 272.688 225.019 277.121L230.871 278.789C227.425 280.141 235.689 281.223 235.916 283.056L237.525 281.464C238.211 283.357 241.883 283.838 243.145 284.905L243.377 283.131L243.261 284.018C246.242 286.212 245.672 283.432 248.653 285.626C248.421 287.399 243.604 284.965 242.569 285.731C260.932 288.135 279.638 291.486 297.884 294.776L298.343 294.836C303.852 295.557 309.361 296.279 314.754 297.886C307.182 295.092 301.098 295.197 291.003 290.268C284.001 290.253 275.965 291.005 269.195 289.217C269.311 288.33 269.311 288.33 268.852 288.27C264.721 287.729 260.589 287.188 256.341 287.534C255.882 287.474 255.766 288.36 255.766 288.36L251.751 286.933C248.537 286.512 246.015 284.379 245.788 282.545C244.986 281.539 244.068 281.418 243.493 282.245ZM450.36 428.357C452.539 429.544 452.999 429.604 453.574 428.778C453.115 428.718 452.656 428.658 452.196 428.598C451.853 427.651 452.312 427.711 452.772 427.771C451.853 427.651 450.476 427.471 449.674 426.464C450.935 427.531 450.819 428.417 450.36 428.357ZM458.966 430.386C458.391 431.212 457.932 431.152 457.014 431.032C457.932 431.152 458.85 431.272 459.309 431.332L458.966 430.386ZM570.14 469.287C570.256 468.401 570.715 468.461 571.174 468.521C569.338 468.281 567.961 468.1 566.008 468.746C567.845 468.987 569.222 469.167 570.14 469.287ZM674.438 500.075C679.947 500.796 687.176 502.644 693.83 505.319C694.405 504.492 695.439 503.726 696.473 502.96C691.081 501.352 686.147 499.804 680.754 498.197C678 497.836 675.588 498.422 674.438 500.075ZM1496.19 272.21L1495.73 272.149L1495.27 272.089C1487.7 272.901 1479.54 274.539 1471.97 275.35C1469.55 275.936 1467.14 276.522 1465.65 277.229C1467.14 276.522 1467.6 276.582 1468.18 275.756C1464.39 276.162 1460.6 276.568 1456.81 276.973C1453.94 277.499 1451.19 277.139 1447.86 277.604C1448.54 279.498 1446.93 281.091 1450.15 281.511L1452.1 280.865C1445.32 286.29 1443.49 278.837 1437.97 285.328C1439.35 285.508 1440.27 285.629 1440.15 286.515C1449.57 285.944 1459.32 286.32 1468.74 285.748C1475.4 284.817 1482.05 283.885 1488.71 282.953L1488.83 282.067L1491.36 280.594L1492.04 282.488C1498.7 281.556 1504.79 281.451 1511.45 280.519L1511.68 278.746C1505.71 277.964 1499.51 278.956 1498.25 277.889L1491.36 280.594L1490.67 278.701L1492.16 277.995L1501.47 274.704L1521.9 275.575L1519.48 279.768C1528.89 279.196 1538.77 278.685 1548.52 279.061C1541.07 275.38 1534.07 271.758 1527.65 267.311C1517.09 269.535 1506.64 270.872 1496.19 272.21ZM1648.9 325.566C1649.36 325.626 1650.39 324.86 1650.85 324.92C1649.93 324.8 1649.59 323.853 1649.13 323.793C1649.13 323.793 1649.01 324.679 1648.67 323.733C1648.09 324.559 1649.13 323.793 1648.9 325.566ZM1653.86 383.928C1653.86 383.928 1653.86 383.928 1654.9 383.161C1654.9 383.161 1654.44 383.101 1653.86 383.928ZM1469.57 347.175C1469.11 347.115 1469.11 347.115 1469.57 347.175V347.175ZM1499.28 355.575C1499.74 355.635 1500.66 355.755 1501.12 355.815L1499.98 353.862C1498.48 354.568 1496.53 355.214 1494.12 355.8C1496.07 355.154 1497.91 355.394 1499.28 355.575ZM1506.63 356.536C1510.76 357.077 1514.89 357.618 1518.91 359.046C1521.55 356.686 1524.08 355.214 1527.18 352.915C1519.6 353.726 1516.84 356.972 1515.12 355.845L1515.36 354.072C1514.9 354.012 1509.96 356.071 1506.63 356.536ZM1498.15 346.409L1500.22 344.876C1499.3 344.756 1498.38 344.636 1497.35 345.402L1498.15 346.409ZM1513.76 344.846C1512.73 345.612 1511.58 347.265 1512.38 348.272C1508.82 350.511 1513.3 348.392 1516.74 347.04C1515.25 347.746 1515.59 348.693 1516.86 349.759L1523.29 346.995C1519.95 351.067 1529.14 345.056 1523.28 350.601C1526.84 348.362 1529.6 348.723 1532.35 349.083C1536.95 346.078 1541.43 343.959 1546.37 341.9C1544.41 342.547 1543.04 342.366 1541.2 342.126L1540.05 343.779L1539.59 343.719L1540.74 342.066C1539.82 341.946 1538.33 342.652 1537.41 342.532C1537.41 342.532 1537.41 342.532 1537.76 343.478C1537.3 343.418 1537.3 343.418 1536.84 343.358C1529.26 344.17 1521.34 344.034 1513.76 344.846ZM1575.77 327.715C1574.86 327.595 1575.43 330.375 1574.73 332.088L1575.3 334.868C1575.3 334.868 1575.3 334.868 1575.76 334.928L1575.77 327.715ZM696.13 263.052C691.08 262.391 685.915 262.616 680.865 261.955C672.602 260.873 664.682 260.738 656.418 259.656C654.466 260.302 652.055 260.889 650.218 260.648C649.532 258.755 643.332 259.747 643.332 259.747C642.414 259.626 641.496 259.506 640.694 258.499C637.021 258.019 632.89 257.478 629.101 257.884C617.968 257.328 606.602 258.545 593.975 258.695C601.083 265.036 617.614 263.594 623.92 268.928C628.97 269.589 633.903 271.137 638.953 271.798C660.877 271.963 682.226 272.954 703.576 273.946C700.71 270.865 699.681 268.025 700.146 264.479C700.262 263.593 700.378 262.706 700.837 262.766C698.884 263.412 697.507 263.232 696.13 263.052ZM1616.04 344.71C1615.58 344.65 1614.66 344.529 1614.09 345.356C1614.09 345.356 1613.51 346.182 1613.4 347.069C1612.94 347.009 1613.05 346.122 1613.05 346.122L1612.59 346.062C1611.1 346.768 1609.26 346.528 1607.54 345.401L1607.43 346.287L1608 345.461L1607.31 347.174L1607.09 345.341C1605.25 345.1 1603.99 344.034 1603.19 343.027C1602.5 341.134 1602.62 340.247 1604.23 338.654C1603.77 338.594 1603.31 338.534 1603.19 339.421C1602.96 337.587 1603.2 335.814 1604.11 335.934C1603.66 335.874 1604 336.821 1603.54 336.761C1604 336.821 1604.46 336.881 1604.11 335.934C1604.57 335.995 1605.38 337.001 1605.72 337.948C1606.18 338.008 1606.64 338.068 1606.75 337.182C1610.08 336.716 1613.07 335.303 1616.4 334.837C1615.94 334.777 1616.17 333.004 1616.17 333.004C1616.97 334.011 1615.94 334.777 1617.32 334.958C1618.23 335.078 1618.81 334.251 1619.73 334.372L1620.53 331.772L1622.71 332.959C1624.44 330.48 1625.58 332.433 1626.96 332.613L1628.8 329.248C1629.72 329.368 1631.21 328.662 1632.02 329.668C1632.48 329.728 1632.48 329.728 1632.93 329.788C1633.39 329.849 1633.39 329.849 1633.85 329.909C1633.85 329.909 1634.31 329.969 1634.43 329.082C1634.89 329.142 1635.46 328.316 1635.92 328.376C1637.41 327.67 1638.33 327.79 1639.83 327.084C1639.94 326.197 1640.63 324.484 1639.72 324.364L1641.21 323.658C1640.75 323.598 1640.06 325.311 1639.94 326.197C1640.4 326.257 1640.4 326.257 1640.86 326.317C1640.98 325.431 1641.78 326.438 1642.35 325.611C1642.35 325.611 1642.35 325.611 1642.24 326.498C1643.16 326.618 1644.19 325.852 1645.11 325.972C1645.91 326.978 1646.83 327.099 1648.09 328.165C1647.75 327.219 1647.4 326.272 1646.49 326.152L1646.94 326.212C1646.49 326.152 1646.14 325.205 1645.68 325.145C1645.68 325.145 1646.26 324.319 1646.72 324.379C1645.8 324.259 1645.34 324.199 1644.31 324.965C1643.04 323.898 1641.32 322.771 1639.6 321.644L1639.03 322.471L1639.15 321.584C1625.94 322.561 1612.74 323.538 1600 324.575C1598.96 325.341 1597.47 326.047 1596.55 325.927L1598.16 324.334C1595.75 324.92 1593.34 325.506 1591.04 325.206C1590.47 326.032 1589.55 325.912 1589.09 325.852C1589.09 325.852 1589.09 325.852 1588.63 325.792C1585.3 326.258 1583.12 325.071 1578.87 329.023L1586.67 333.651C1589.42 334.011 1593.21 333.606 1594.93 334.732L1595.39 334.793C1595.39 334.793 1595.39 334.793 1595.28 335.679C1595.73 335.739 1596.08 336.686 1596.08 336.686C1594.35 339.165 1594.13 337.332 1593.32 336.325C1592.41 336.205 1591.95 336.145 1591.26 337.858C1591.26 337.858 1591.95 336.145 1591.49 336.085C1591.03 336.025 1590.45 336.851 1590.45 336.851C1590.45 336.851 1590.45 336.851 1590.57 335.965C1590.57 335.965 1590.57 335.965 1590.45 336.851C1590.45 336.851 1590.34 337.738 1589.88 337.678C1590.34 337.738 1590.8 337.798 1591.14 338.745C1591.14 338.745 1591.14 338.745 1591.71 337.918C1591.71 337.918 1591.71 337.918 1591.6 338.805C1599.51 342.546 1603.41 344.86 1606.05 346.107C1606.05 346.107 1606.05 346.107 1607.31 347.174C1608.23 347.294 1608.57 348.241 1609.49 348.361L1610.53 347.595L1609.95 348.421C1609.95 348.421 1610.41 348.481 1610.87 348.541L1610.98 347.655L1612.36 347.835L1611.79 348.662L1612.25 348.722C1612.82 347.895 1613.4 347.069 1613.51 346.182C1616.04 344.71 1616.96 344.83 1619.49 343.357C1618.45 344.124 1617.07 343.943 1616.04 344.71ZM515.506 465.742C516.883 465.922 517.801 466.042 518.72 466.162C517.801 466.042 516.424 465.862 515.506 465.742ZM404.256 320.425C401.502 320.064 398.288 319.643 395.65 318.396C395.191 318.336 395.075 319.223 394.616 319.163C397.829 319.583 401.043 320.004 404.256 320.425ZM446.49 325.954C452.917 326.795 458.885 327.577 465.312 328.418C467.728 324.226 471.406 321.1 475.886 318.982C471.754 318.441 467.048 318.726 462.916 318.185C458.441 316.698 454.426 315.27 450.067 312.896C450.526 312.956 450.985 313.016 451.904 313.137C440.886 311.694 430.443 309.425 419.426 307.983C419.31 308.869 418.735 309.696 421.832 311.003C428.607 309.185 433.071 317.885 438.812 316.833C440.992 318.02 441.683 316.307 442.142 316.367C443.403 317.434 441.451 318.08 440.417 318.847C436.174 315.586 432.844 316.052 427.336 315.331C427.795 315.391 427.911 314.504 427.452 314.444C425.615 314.204 419.305 312.476 417.468 312.235L415.405 310.162C416.323 310.282 418.962 311.529 418.619 310.582L416.439 309.395C419.996 310.763 418.276 309.636 417.933 308.689C405.195 306.12 392.341 304.437 379.603 301.868L379.946 302.814C379.487 302.754 379.028 302.694 378.685 301.748C376.39 301.447 374.094 301.147 371.799 300.846C371.224 301.672 370.765 301.612 372.026 302.679L376.274 302.334C377.989 307.067 381.091 304.768 386.025 306.315C381.202 307.487 364.913 299.945 366.628 304.678L359.974 302.003C361.927 301.357 362.386 301.417 365.024 302.664C364.797 300.831 367.209 300.245 367.325 299.358C363.652 298.878 360.439 298.457 356.766 297.976C353.553 297.555 350.339 297.135 346.667 296.654C346.55 297.54 347.469 297.661 346.661 300.26L349.875 300.681C347.12 300.32 343.907 299.9 342.071 299.659L343.332 300.726C342.298 301.492 340.577 300.365 339.316 299.299C338.857 299.239 337.939 299.118 337.596 298.172C337.596 298.172 337.596 298.172 338.055 298.232C337.137 298.112 335.76 297.931 335.417 296.985C335.301 297.871 335.069 299.644 331.512 298.277L334.034 300.411C330.478 299.043 330.821 299.99 330.589 301.763C369.836 308.705 408.509 316.473 446.49 325.954ZM318.885 298.427C320.722 298.668 323.017 298.968 324.853 299.209C323.017 298.968 321.181 298.728 318.885 298.427ZM275.785 256.715C276.36 255.889 276.819 255.949 277.394 255.122C276.017 254.942 275.099 254.822 273.722 254.642C274.065 255.588 274.867 256.595 275.785 256.715ZM292.796 240.907C290.96 240.667 289.583 240.487 289.467 241.373C290.844 241.554 291.762 241.674 293.139 241.854C293.599 241.914 293.599 241.914 292.796 240.907ZM297.503 240.622C292.569 239.074 294.633 241.148 294.058 241.974C295.894 242.215 297.73 242.455 300.025 242.756L295.894 242.215C298.189 242.515 298.764 241.689 297.503 240.622ZM303.123 244.063C304.959 244.303 306.336 244.483 308.172 244.724C306.795 244.544 304.959 244.303 303.123 244.063ZM853.283 257.475C852.824 257.415 852.708 258.302 852.592 259.188L853.051 259.249C852.708 258.302 853.742 257.536 853.283 257.475ZM1022.95 249.029L1023.41 249.089C1023.07 248.142 1023.07 248.142 1022.95 249.029ZM1414.79 280.49C1411.23 282.729 1407.21 284.908 1403.65 287.147L1405.03 287.327C1409.73 287.041 1414.1 285.809 1418.8 285.524L1416.28 286.996C1422.36 286.891 1428.44 286.786 1434.99 286.741C1434.64 285.794 1434.3 284.847 1436.37 283.315L1441.08 283.029C1438.44 281.782 1442.57 278.716 1445.9 278.251C1437.87 279.002 1430.41 278.927 1422.03 278.732C1419.62 279.318 1417.21 279.904 1414.79 280.49ZM1657.6 341.133C1657.71 340.246 1656.1 341.839 1656.22 340.953C1655.76 340.893 1655.3 340.832 1654.84 340.772C1654.38 340.712 1653.93 340.652 1653.47 340.592L1653.23 342.365C1653.93 340.652 1654.73 341.659 1655.76 340.893L1655.53 342.666L1656.45 342.786L1655.99 342.726C1655.99 342.726 1656.33 343.672 1656.79 343.733C1655.99 342.726 1657.37 342.906 1657.6 341.133ZM1667.23 349.608C1666.31 349.487 1665.73 353.92 1664.7 351.08C1664.58 351.967 1664.13 351.907 1664.01 352.793C1665.39 352.974 1666.3 353.094 1667.68 353.274L1666.88 352.267C1667.11 350.494 1667.69 349.668 1667.23 349.608ZM1669.18 352.568C1669.52 353.514 1669.98 353.575 1670.44 353.635L1670.55 352.748L1669.18 352.568ZM1672.39 352.988C1672.05 352.042 1671.47 352.868 1671.01 352.808L1671.35 353.755C1671.93 352.928 1672.39 352.988 1672.39 352.988ZM1616.78 545.895L1614.96 538.442C1614.5 538.382 1614.5 538.382 1614.04 538.322L1615.75 546.661L1616.78 545.895ZM426.553 460.408C427.012 460.469 427.471 460.529 427.93 460.589C427.355 461.415 427.471 460.529 426.553 460.408ZM493.339 474.562L497.814 476.05L492.991 477.222L493.107 476.335C488.975 475.795 481.287 473.886 478.876 474.472C496.89 479.536 515.48 483.773 533.954 488.897L533.152 487.89C534.07 488.01 536.824 488.371 537.51 490.264C539.921 489.678 542.333 489.092 544.744 488.506C544.628 489.393 544.053 490.219 543.937 491.106C576.984 499.039 610.607 506.146 645.38 511.6C647.675 511.901 649.971 512.201 652.266 512.502L651.923 511.555L652.841 511.675L652.725 512.562C662.366 513.824 672.006 515.086 681.187 516.288C682.565 516.468 684.058 515.762 685.435 515.942C696.569 516.498 707.243 516.994 718.493 516.663C714.82 516.183 711.148 515.702 707.016 515.161C700.589 514.32 695.313 511.825 693.941 508.039C667.658 505.499 641.375 502.96 615.092 500.421C615.551 500.481 615.551 500.481 615.894 501.428C614.058 501.188 612.222 500.947 610.385 500.707C609.467 500.587 609.008 500.526 608.09 500.406L608.549 500.466C604.418 499.925 600.861 498.558 598.909 499.204C597.88 496.364 602.586 496.079 606.375 495.673C608.897 497.807 605.916 495.613 605.109 498.212C607.404 498.513 612.111 498.227 614.29 499.414C618.654 498.182 622.558 496.89 626.579 494.711C626.12 494.651 625.661 494.591 624.743 494.471C625.202 494.531 626.12 494.651 626.579 494.711C628.532 494.065 630.6 492.532 632.668 491C644.472 504.268 668.344 507.393 693.366 508.865L693.023 507.918L693.139 507.032C686.48 507.964 676.96 502.209 668.006 502.84L665.6 499.82L672.718 498.948C665.832 498.047 660.787 493.779 654.704 493.884C656.767 495.958 662.043 498.452 661.927 499.339L648.266 500.256C652.514 499.91 647.126 494.696 653.437 496.424L651.031 493.404C652.408 493.584 653.785 493.764 654.82 492.998C650.229 492.397 655.168 490.338 653.105 488.265C652.186 488.144 651.268 488.024 650.466 487.017C650.466 487.017 650.466 487.017 650.925 487.078L644.266 488.009L647.591 491.15L643.918 490.669C646.213 490.969 640.14 483.862 644.271 484.403C642.894 484.223 642.092 483.216 640.715 483.036C638.879 482.795 637.042 482.555 635.206 482.314C634.172 483.081 632.795 482.9 631.418 482.72L634.283 485.801L630.267 484.373L630.726 484.433C631.302 483.607 628.547 483.246 628.088 483.186L624.526 485.425C622.806 484.298 622.463 483.351 623.957 482.645C619.139 480.211 619.593 483.877 618.099 484.584L617.646 480.917C615.35 480.617 613.055 480.316 610.301 479.956C609.842 479.895 609.842 479.895 609.382 479.835C608.005 479.655 606.169 479.415 604.792 479.234L607.657 482.315L602.264 480.707C603.641 480.887 604.217 480.061 603.99 478.228C599.747 474.967 596.07 478.092 593.547 475.959C596.877 475.493 604.106 477.341 609.498 478.949C609.155 478.002 609.156 478.002 610.533 478.182C609.388 476.229 600.776 477.807 593.779 474.186C592.402 474.005 587.696 474.291 583.564 473.75L583.332 475.523C582.873 475.463 582.071 474.456 580.234 474.216C578.171 472.142 574.842 472.608 571.628 472.187C570.826 471.181 569.908 471.061 570.024 470.174C568.188 469.934 566.695 470.64 564.858 470.399C566.695 470.64 568.415 471.767 570.251 472.007L571.628 472.187C571.169 472.127 570.71 472.067 570.71 472.067C575.185 473.555 578.625 475.809 583.1 477.296C583.559 477.356 583.559 477.356 583.675 476.47L583.559 477.356L584.018 477.416C587.806 477.011 586.656 478.664 591.706 479.325C585.047 480.256 595.373 483.412 588.371 483.397L588.946 482.57C585.849 481.263 582.978 481.789 582.403 482.615L582.06 481.669C577.586 480.181 569.897 478.273 567.032 475.193C564.964 476.725 557.624 472.157 559.112 475.058C556.595 469.318 552.453 475.989 550.395 470.309L547.525 470.835C547.298 469.002 546.379 468.882 544.775 466.868C539.61 467.094 534.101 466.373 528.935 466.598C529.737 467.605 530.882 469.558 531.8 469.678C528.244 468.311 524.571 467.83 521.817 467.47C522.276 467.53 522.276 467.53 522.851 466.703C517.231 463.262 516.192 467.635 512.52 467.154C514.583 469.228 515.153 472.008 520.661 472.729C521.696 471.963 518.598 470.655 517.68 470.535L522.271 471.136C522.271 471.136 523.3 473.976 519.052 474.322L518.593 474.262C508.842 470.28 505.618 477.072 498.621 473.45C495.524 472.143 495.292 473.916 493.339 474.562ZM587.342 480.557C587.801 480.617 588.835 479.851 589.753 479.971C588.835 479.851 587.917 479.73 587.115 478.724C587.458 479.67 587.458 479.67 587.342 480.557ZM583.553 480.963C584.013 481.023 584.472 481.083 584.931 481.143C584.931 481.143 584.013 481.023 583.553 480.963ZM426.721 423.459C425.687 424.225 426.146 424.285 426.948 425.292C427.407 425.352 428.325 425.473 428.784 425.533C429.359 424.706 430.62 425.773 432.457 426.013C433.375 426.134 434.293 426.254 434.752 426.314L435.211 426.374L435.67 426.434C439.802 426.975 444.276 428.463 448.408 429.003C447.606 427.997 448.181 427.17 448.756 426.344C448.297 426.284 447.379 426.164 446.92 426.103L446.345 426.93L445.542 425.923C444.624 425.803 443.247 425.623 442.445 424.616C442.788 425.563 443.247 425.623 444.508 426.69C444.392 427.576 439.918 426.088 435.902 424.661C435.786 425.548 436.245 425.608 436.245 425.608C433.839 422.587 429.818 424.766 426.721 423.459ZM481.028 415.239L482.405 415.419C481.486 415.299 480.685 414.293 479.766 414.172C478.848 414.052 479.307 414.112 481.028 415.239ZM386.602 383.941C390.966 382.708 393.947 384.902 396.817 384.376C393.145 383.895 389.472 383.415 385.341 382.874C386.259 382.994 386.602 383.941 386.602 383.941ZM299.932 307.669L300.048 306.782C297.52 308.255 289.03 305.34 287.421 306.932C291.553 307.473 295.8 307.128 299.932 307.669ZM260.236 293.454C265.861 293.289 273.659 297.917 273.886 299.75C280.203 297.872 284.904 301.192 289.384 299.074C289.727 300.02 290.645 300.141 288.234 300.727C295.003 302.515 304.528 304.663 311.066 308.224L309.113 308.871C310.031 308.991 310.49 309.051 311.408 309.171C320.131 310.313 328.853 311.455 337.691 311.71C337.691 311.71 337.691 311.71 337.807 310.824L335.169 309.577L337.581 308.991C337.924 309.937 338.842 310.057 339.185 311.004C345.612 311.845 352.038 312.687 358.465 313.528L357.088 313.348C358.239 311.695 358.238 311.695 362.37 312.236C363.172 313.243 357.895 310.748 358.122 312.582L359.041 312.702C361.336 313.002 363.631 313.303 365.927 313.603C365.927 313.603 366.043 312.717 365.125 312.597C366.043 312.717 366.845 313.723 368.222 313.904C377.403 315.106 386.585 316.308 395.766 317.51C395.766 317.51 394.964 316.503 394.046 316.383C393.128 316.263 392.209 316.142 391.291 316.022L389.914 315.842C366.275 310.944 343.095 306.105 319.339 302.094C321.402 304.167 325.418 305.595 326.104 307.488C328.858 307.849 325.418 305.595 328.056 306.842C326.563 307.548 327.476 311.275 320.822 308.6L316.004 306.166L317.614 304.573C317.614 304.573 317.957 305.52 319.793 305.76L320.484 304.047L315.667 301.613L317.503 301.853C297.763 299.269 279.057 295.918 260.236 293.454Z" fill="#E1EFF2"></path>
</svg>