<?xml version="1.0" standalone="no"?><svg xmlns="http://www.w3.org/2000/svg" viewBox="0 0 1440 320"><path fill="#164B60" fill-opacity=".7" d="M0,32L40,48C80,64,160,96,240,122.7C320,149,400,171,480,154.7C560,139,640,85,720,96C800,107,880,181,960,197.3C1040,213,1120,171,1200,176C1280,181,1360,235,1400,261.3L1440,288L1440,320L1400,320C1360,320,1280,320,1200,320C1120,320,1040,320,960,320C880,320,800,320,720,320C640,320,560,320,480,320C400,320,320,320,240,320C160,320,80,320,40,320L0,320Z"></path></svg>
